<svg id="filled_outline" height="512" viewBox="0 0 512 512" width="512" xmlns="http://www.w3.org/2000/svg" data-name="filled outline"><path d="m424 120v64l-32 264h-272l-32-264v-64z" fill="#eda600"/><path d="m376 392-8 56h-216l-8-64 24-48-24-88 40-48h80l8 24 64 16 32-8-3.64 40-4.36 48z" fill="#548aff"/><path d="m72 72h368v48h-368z" fill="#f6bb00"/><path d="m120 448h272v40h-272z" fill="#f6bb00"/><path d="m368 232-3.64014 40h-53.29556a32 32 0 0 1 -30.35787-21.88071l-8.70643-26.11929 64 16z" fill="#486be0"/><path d="m120 496h272a8.00039 8.00039 0 0 0 8-8v-39.52051l31.94141-263.5166a7.93947 7.93947 0 0 0 .05859-.96289v-56h8a8.00039 8.00039 0 0 0 8-8v-48a8.00039 8.00039 0 0 0 -8-8h-108.25342l-17.11474-20.53906a76.322 76.322 0 0 0 -117.26368.001l-17.11474 20.53806h-108.25342a8.00039 8.00039 0 0 0 -8 8v48a8.00039 8.00039 0 0 0 8 8h8v56a7.93947 7.93947 0 0 0 .05859.96289l31.94141 263.5166v39.52051a8.00039 8.00039 0 0 0 8 8zm264-16h-256v-24h256zm-231.76172-94.58887 22.917-45.833a7.99347 7.99347 0 0 0 .5625-5.68261l-22.90235-83.97752 34.93164-41.918h70.48731l22.17578 66.53027 15.17968-5.06054-11.3916-34.17432 49.86133 12.46533a8.0041 8.0041 0 0 0 3.88086 0l21.07227-5.26758-6.9795 76.78223a7.97748 7.97748 0 0 0 .15723 2.46l15.68357 70.57711-6.81248 47.6875h-47.17285l17.68945-8.84473a8.00008 8.00008 0 0 0 4.26661-5.58593l8-40-15.68946-3.13868-7.23242 36.16407-42.81152 21.40527h-119.04883zm57.4209-331.706a60.32274 60.32274 0 0 1 92.68164-.001l8.57959 10.29587h-109.84033zm-129.65918 26.29487h352v32h-352zm16 48h320v55.5166l-31.08838 256.4834h-7.687l6.69531-46.86816a8.01944 8.01944 0 0 0 -.11035-2.86719l-15.72949-70.78223 7.88672-86.75781a7.999 7.999 0 0 0 -9.90723-8.48535l-30.05958 7.51465-57.79883-14.44947-6.61133-19.83471a8.00026 8.00026 0 0 0 -7.58984-5.46973h-80a7.99862 7.99862 0 0 0 -6.14551 2.87891l-40 48a7.99847 7.99847 0 0 0 -1.57226 7.22558l23.19531 85.05176-22.63281 45.26563a8.00873 8.00873 0 0 0 -.78321 4.57031l6.87598 55.00781h-15.84912l-31.08838-256.4834z"/><path d="m192 272h56v16h-56z"/><path d="m192 312h80v16h-80z"/><path d="m288 312h32v16h-32z"/><path d="m192 392h24v16h-24z"/><path d="m232 392h56v16h-56z"/><path d="m256 352h24v16h-24z"/><path d="m192 352h48v16h-48z"/><path d="m296 352h24v16h-24z"/><path d="m224 232h24v16h-24z"/><path d="m192 232h16v16h-16z"/></svg>